<svg width="24" height="24" viewBox="0 0 24 24" fill="none" xmlns="http://www.w3.org/2000/svg">
<mask id="mask0_85_1413" style="mask-type:alpha" maskUnits="userSpaceOnUse" x="0" y="0" width="24" height="24">
<rect width="24" height="24" fill="#D9D9D9"/>
</mask>
<g mask="url(#mask0_85_1413)">
<path d="M5.84997 17.1C6.69997 16.45 7.64997 15.9375 8.69997 15.5625C9.74997 15.1875 10.85 15 12 15C13.15 15 14.25 15.1875 15.3 15.5625C16.35 15.9375 17.3 16.45 18.15 17.1C18.7333 16.4167 19.1875 15.6417 19.5125 14.775C19.8375 13.9083 20 12.9833 20 12C20 9.78333 19.2208 7.89583 17.6625 6.3375C16.1041 4.77917 14.2166 4 12 4C9.7833 4 7.8958 4.77917 6.33747 6.3375C4.77914 7.89583 3.99997 9.78333 3.99997 12C3.99997 12.9833 4.16247 13.9083 4.48747 14.775C4.81247 15.6417 5.26664 16.4167 5.84997 17.1ZM12 13C11.0166 13 10.1875 12.6625 9.51247 11.9875C8.83747 11.3125 8.49997 10.4833 8.49997 9.5C8.49997 8.51667 8.83747 7.6875 9.51247 7.0125C10.1875 6.3375 11.0166 6 12 6C12.9833 6 13.8125 6.3375 14.4875 7.0125C15.1625 7.6875 15.5 8.51667 15.5 9.5C15.5 10.4833 15.1625 11.3125 14.4875 11.9875C13.8125 12.6625 12.9833 13 12 13ZM12 22C10.6166 22 9.31664 21.7375 8.09997 21.2125C6.8833 20.6875 5.82497 19.975 4.92497 19.075C4.02497 18.175 3.31247 17.1167 2.78747 15.9C2.26247 14.6833 1.99997 13.3833 1.99997 12C1.99997 10.6167 2.26247 9.31667 2.78747 8.1C3.31247 6.88333 4.02497 5.825 4.92497 4.925C5.82497 4.025 6.8833 3.3125 8.09997 2.7875C9.31664 2.2625 10.6166 2 12 2C13.3833 2 14.6833 2.2625 15.9 2.7875C17.1166 3.3125 18.175 4.025 19.075 4.925C19.975 5.825 20.6875 6.88333 21.2125 8.1C21.7375 9.31667 22 10.6167 22 12C22 13.3833 21.7375 14.6833 21.2125 15.9C20.6875 17.1167 19.975 18.175 19.075 19.075C18.175 19.975 17.1166 20.6875 15.9 21.2125C14.6833 21.7375 13.3833 22 12 22ZM12 20C12.8833 20 13.7166 19.8708 14.5 19.6125C15.2833 19.3542 16 18.9833 16.65 18.5C16 18.0167 15.2833 17.6458 14.5 17.3875C13.7166 17.1292 12.8833 17 12 17C11.1166 17 10.2833 17.1292 9.49997 17.3875C8.71664 17.6458 7.99997 18.0167 7.34997 18.5C7.99997 18.9833 8.71664 19.3542 9.49997 19.6125C10.2833 19.8708 11.1166 20 12 20ZM12 11C12.4333 11 12.7916 10.8583 13.075 10.575C13.3583 10.2917 13.5 9.93333 13.5 9.5C13.5 9.06667 13.3583 8.70833 13.075 8.425C12.7916 8.14167 12.4333 8 12 8C11.5666 8 11.2083 8.14167 10.925 8.425C10.6416 8.70833 10.5 9.06667 10.5 9.5C10.5 9.93333 10.6416 10.2917 10.925 10.575C11.2083 10.8583 11.5666 11 12 11Z" fill="#F5F5F5"/>
</g>
</svg>
