<svg width="24" height="24" viewBox="0 0 24 24" fill="none" xmlns="http://www.w3.org/2000/svg">
<mask id="mask0_85_1482" style="mask-type:alpha" maskUnits="userSpaceOnUse" x="0" y="0" width="24" height="24">
<rect width="24" height="24" fill="#D9D9D9"/>
</mask>
<g mask="url(#mask0_85_1482)">
<path d="M5.84994 17.1C6.69994 16.45 7.64994 15.9375 8.69994 15.5625C9.74994 15.1875 10.8499 15 11.9999 15C13.1499 15 14.2499 15.1875 15.2999 15.5625C16.3499 15.9375 17.2999 16.45 18.1499 17.1C18.7333 16.4167 19.1874 15.6417 19.5124 14.775C19.8374 13.9083 19.9999 12.9833 19.9999 12C19.9999 9.78333 19.2208 7.89583 17.6624 6.3375C16.1041 4.77917 14.2166 4 11.9999 4C9.78327 4 7.89577 4.77917 6.33744 6.3375C4.77911 7.89583 3.99994 9.78333 3.99994 12C3.99994 12.9833 4.16244 13.9083 4.48744 14.775C4.81244 15.6417 5.26661 16.4167 5.84994 17.1ZM11.9999 13C11.0166 13 10.1874 12.6625 9.51244 11.9875C8.83744 11.3125 8.49994 10.4833 8.49994 9.5C8.49994 8.51667 8.83744 7.6875 9.51244 7.0125C10.1874 6.3375 11.0166 6 11.9999 6C12.9833 6 13.8124 6.3375 14.4874 7.0125C15.1624 7.6875 15.4999 8.51667 15.4999 9.5C15.4999 10.4833 15.1624 11.3125 14.4874 11.9875C13.8124 12.6625 12.9833 13 11.9999 13ZM11.9999 22C10.6166 22 9.3166 21.7375 8.09994 21.2125C6.88327 20.6875 5.82494 19.975 4.92494 19.075C4.02494 18.175 3.31244 17.1167 2.78744 15.9C2.26244 14.6833 1.99994 13.3833 1.99994 12C1.99994 10.6167 2.26244 9.31667 2.78744 8.1C3.31244 6.88333 4.02494 5.825 4.92494 4.925C5.82494 4.025 6.88327 3.3125 8.09994 2.7875C9.3166 2.2625 10.6166 2 11.9999 2C13.3833 2 14.6833 2.2625 15.8999 2.7875C17.1166 3.3125 18.1749 4.025 19.0749 4.925C19.9749 5.825 20.6874 6.88333 21.2124 8.1C21.7374 9.31667 21.9999 10.6167 21.9999 12C21.9999 13.3833 21.7374 14.6833 21.2124 15.9C20.6874 17.1167 19.9749 18.175 19.0749 19.075C18.1749 19.975 17.1166 20.6875 15.8999 21.2125C14.6833 21.7375 13.3833 22 11.9999 22ZM11.9999 20C12.8833 20 13.7166 19.8708 14.4999 19.6125C15.2833 19.3542 15.9999 18.9833 16.6499 18.5C15.9999 18.0167 15.2833 17.6458 14.4999 17.3875C13.7166 17.1292 12.8833 17 11.9999 17C11.1166 17 10.2833 17.1292 9.49994 17.3875C8.7166 17.6458 7.99994 18.0167 7.34994 18.5C7.99994 18.9833 8.7166 19.3542 9.49994 19.6125C10.2833 19.8708 11.1166 20 11.9999 20ZM11.9999 11C12.4333 11 12.7916 10.8583 13.0749 10.575C13.3583 10.2917 13.4999 9.93333 13.4999 9.5C13.4999 9.06667 13.3583 8.70833 13.0749 8.425C12.7916 8.14167 12.4333 8 11.9999 8C11.5666 8 11.2083 8.14167 10.9249 8.425C10.6416 8.70833 10.4999 9.06667 10.4999 9.5C10.4999 9.93333 10.6416 10.2917 10.9249 10.575C11.2083 10.8583 11.5666 11 11.9999 11Z" fill="#F5F5F5"/>
</g>
</svg>
