<svg width="36" height="33" viewBox="0 0 36 33" fill="none" xmlns="http://www.w3.org/2000/svg">
<path d="M3.9375 32.0625C3.07812 32.0625 2.34245 31.7565 1.73047 31.1445C1.11849 30.5326 0.8125 29.7969 0.8125 28.9375V10.1875C0.8125 9.32812 1.11849 8.59245 1.73047 7.98047C2.34245 7.36849 3.07812 7.0625 3.9375 7.0625H8.85938L11.75 3.9375H21.125V7.0625H13.1172L10.2656 10.1875H3.9375V28.9375H28.9375V14.875H32.0625V28.9375C32.0625 29.7969 31.7565 30.5326 31.1445 31.1445C30.5326 31.7565 29.7969 32.0625 28.9375 32.0625H3.9375ZM28.9375 10.1875V7.0625H25.8125V3.9375H28.9375V0.8125H32.0625V3.9375H35.1875V7.0625H32.0625V10.1875H28.9375ZM16.4375 26.5938C18.3906 26.5938 20.0508 25.9102 21.418 24.543C22.7852 23.1758 23.4688 21.5156 23.4688 19.5625C23.4688 17.6094 22.7852 15.9492 21.418 14.582C20.0508 13.2148 18.3906 12.5312 16.4375 12.5312C14.4844 12.5312 12.8242 13.2148 11.457 14.582C10.0898 15.9492 9.40625 17.6094 9.40625 19.5625C9.40625 21.5156 10.0898 23.1758 11.457 24.543C12.8242 25.9102 14.4844 26.5938 16.4375 26.5938ZM16.4375 23.4688C15.3438 23.4688 14.4193 23.0911 13.6641 22.3359C12.9089 21.5807 12.5312 20.6562 12.5312 19.5625C12.5312 18.4688 12.9089 17.5443 13.6641 16.7891C14.4193 16.0339 15.3438 15.6562 16.4375 15.6562C17.5312 15.6562 18.4557 16.0339 19.2109 16.7891C19.9661 17.5443 20.3438 18.4688 20.3438 19.5625C20.3438 20.6562 19.9661 21.5807 19.2109 22.3359C18.4557 23.0911 17.5312 23.4688 16.4375 23.4688Z" fill="#007ACC"/>
</svg>
