<svg width="24" height="24" viewBox="0 0 24 24" fill="none" xmlns="http://www.w3.org/2000/svg">
<mask id="mask0_446_644" style="mask-type:alpha" maskUnits="userSpaceOnUse" x="0" y="0" width="24" height="24">
<rect width="24" height="24" fill="#D9D9D9"/>
</mask>
<g mask="url(#mask0_446_644)">
<path d="M12.0001 22C10.7501 22 9.57927 21.7625 8.4876 21.2875C7.39593 20.8125 6.44593 20.1708 5.6376 19.3625C4.82926 18.5542 4.1876 17.6042 3.7126 16.5125C3.2376 15.4208 3.0001 14.25 3.0001 13C3.0001 11.75 3.2376 10.5792 3.7126 9.4875C4.1876 8.39583 4.82926 7.44583 5.6376 6.6375C6.44593 5.82916 7.39593 5.1875 8.4876 4.7125C9.57927 4.2375 10.7501 4 12.0001 4C13.2501 4 14.4209 4.2375 15.5126 4.7125C16.6043 5.1875 17.5543 5.82916 18.3626 6.6375C19.1709 7.44583 19.8126 8.39583 20.2876 9.4875C20.7626 10.5792 21.0001 11.75 21.0001 13C21.0001 14.25 20.7626 15.4208 20.2876 16.5125C19.8126 17.6042 19.1709 18.5542 18.3626 19.3625C17.5543 20.1708 16.6043 20.8125 15.5126 21.2875C14.4209 21.7625 13.2501 22 12.0001 22ZM14.8001 17.2L16.2001 15.8L13.0001 12.6V8H11.0001V13.4L14.8001 17.2ZM5.6001 2.35L7.0001 3.75L2.7501 8L1.3501 6.6L5.6001 2.35ZM18.4001 2.35L22.6501 6.6L21.2501 8L17.0001 3.75L18.4001 2.35ZM12.0001 20C13.9501 20 15.6043 19.3208 16.9626 17.9625C18.3209 16.6042 19.0001 14.95 19.0001 13C19.0001 11.05 18.3209 9.39583 16.9626 8.0375C15.6043 6.67916 13.9501 6 12.0001 6C10.0501 6 8.39593 6.67916 7.0376 8.0375C5.67926 9.39583 5.0001 11.05 5.0001 13C5.0001 14.95 5.67926 16.6042 7.0376 17.9625C8.39593 19.3208 10.0501 20 12.0001 20Z" fill="#007ACC"/>
</g>
</svg>
