<svg width="32" height="32" viewBox="0 0 32 32" fill="none" xmlns="http://www.w3.org/2000/svg">
<mask id="mask0_21_1303" style="mask-type:alpha" maskUnits="userSpaceOnUse" x="0" y="0" width="32" height="32">
<rect width="32" height="32" fill="#D9D9D9"/>
</mask>
<g mask="url(#mask0_21_1303)">
<path d="M6.66667 28C5.93333 28 5.30556 27.7389 4.78333 27.2167C4.26111 26.6944 4 26.0667 4 25.3333V6.66667C4 5.93333 4.26111 5.30556 4.78333 4.78333C5.30556 4.26111 5.93333 4 6.66667 4H25.3333C26.0667 4 26.6944 4.26111 27.2167 4.78333C27.7389 5.30556 28 5.93333 28 6.66667V25.3333C28 26.0667 27.7389 26.6944 27.2167 27.2167C26.6944 27.7389 26.0667 28 25.3333 28H6.66667ZM8 16.7667L13.3333 11.4333L18.6667 16.7667L24 11.4333L25.3333 12.7667V6.66667H6.66667V15.4333L8 16.7667ZM6.66667 25.3333H25.3333V16.5333L24 15.2L18.6667 20.5333L13.3333 15.2L8 20.5333L6.66667 19.2V25.3333ZM6.66667 25.3333V16.5333V19.2V6.66667V25.3333Z" fill="#A9A9A9"/>
</g>
</svg>
