<svg width="18" height="18" viewBox="0 0 18 18" fill="none" xmlns="http://www.w3.org/2000/svg">
<path d="M2 18C1.45 18 0.979167 17.8042 0.5875 17.4125C0.195833 17.0208 0 16.55 0 16V2C0 1.45 0.195833 0.979167 0.5875 0.5875C0.979167 0.195833 1.45 0 2 0H16C16.55 0 17.0208 0.195833 17.4125 0.5875C17.8042 0.979167 18 1.45 18 2V16C18 16.55 17.8042 17.0208 17.4125 17.4125C17.0208 17.8042 16.55 18 16 18H2ZM14.275 16H16V14.275L14.275 16ZM2.85 16H4.675L7.675 13H9.8L6.8 16H8.4L11.4 13H13.525L10.525 16H12.15L15.15 13H16V2H2V14.725L3.725 13H5.85L2.85 16ZM4.65 11L3.25 9.6L7.675 5.175L9.675 7.175L13.35 3.5L14.75 4.9L9.675 10L7.675 8L4.65 11Z" fill="#007ACC"/>
</svg>
