<svg width="64" height="64" viewBox="0 0 64 64" fill="none" xmlns="http://www.w3.org/2000/svg">
<mask id="mask0_86_2119" style="mask-type:alpha" maskUnits="userSpaceOnUse" x="0" y="0" width="64" height="64">
<rect width="64" height="64" fill="#D9D9D9"/>
</mask>
<g mask="url(#mask0_86_2119)">
<path d="M32 25.3334C31.2444 25.3334 30.6111 25.0779 30.1 24.5667C29.5889 24.0556 29.3333 23.4223 29.3333 22.6667C29.3333 21.9112 29.5889 21.2779 30.1 20.7667C30.6111 20.2556 31.2444 20.0001 32 20.0001C32.7555 20.0001 33.3889 20.2556 33.9 20.7667C34.4111 21.2779 34.6667 21.9112 34.6667 22.6667C34.6667 23.4223 34.4111 24.0556 33.9 24.5667C33.3889 25.0779 32.7555 25.3334 32 25.3334ZM29.3333 16.0001V2.66675H34.6667V16.0001H29.3333ZM18.6667 58.6667C17.2 58.6667 15.9444 58.1445 14.9 57.1001C13.8555 56.0556 13.3333 54.8001 13.3333 53.3334C13.3333 51.8667 13.8555 50.6112 14.9 49.5667C15.9444 48.5223 17.2 48.0001 18.6667 48.0001C20.1333 48.0001 21.3889 48.5223 22.4333 49.5667C23.4778 50.6112 24 51.8667 24 53.3334C24 54.8001 23.4778 56.0556 22.4333 57.1001C21.3889 58.1445 20.1333 58.6667 18.6667 58.6667ZM45.3333 58.6667C43.8667 58.6667 42.6111 58.1445 41.5667 57.1001C40.5222 56.0556 40 54.8001 40 53.3334C40 51.8667 40.5222 50.6112 41.5667 49.5667C42.6111 48.5223 43.8667 48.0001 45.3333 48.0001C46.8 48.0001 48.0555 48.5223 49.1 49.5667C50.1444 50.6112 50.6667 51.8667 50.6667 53.3334C50.6667 54.8001 50.1444 56.0556 49.1 57.1001C48.0555 58.1445 46.8 58.6667 45.3333 58.6667ZM2.66666 10.6667V5.33341H11.4L22.7333 29.3334H41.4L51.8 10.6667H57.8667L46.1333 31.8667C45.6444 32.7556 44.9889 33.4445 44.1667 33.9334C43.3444 34.4223 42.4444 34.6667 41.4667 34.6667H21.6L18.6667 40.0001H50.6667V45.3334H18.6667C16.6667 45.3334 15.1444 44.4668 14.1 42.7334C13.0555 41.0001 13.0222 39.2445 14 37.4668L17.6 30.9334L7.99999 10.6667H2.66666Z" fill="#A9A9A9"/>
</g>
</svg>
