<svg width="24" height="24" viewBox="0 0 24 24" fill="none" xmlns="http://www.w3.org/2000/svg">
<mask id="mask0_85_1485" style="mask-type:alpha" maskUnits="userSpaceOnUse" x="0" y="0" width="24" height="24">
<rect width="24" height="24" fill="#D9D9D9"/>
</mask>
<g mask="url(#mask0_85_1485)">
<path d="M11.9999 17.5C13.2499 17.5 14.3124 17.0625 15.1874 16.1875C16.0624 15.3125 16.4999 14.25 16.4999 13C16.4999 11.75 16.0624 10.6875 15.1874 9.8125C14.3124 8.9375 13.2499 8.5 11.9999 8.5C10.7499 8.5 9.68738 8.9375 8.81238 9.8125C7.93738 10.6875 7.49988 11.75 7.49988 13C7.49988 14.25 7.93738 15.3125 8.81238 16.1875C9.68738 17.0625 10.7499 17.5 11.9999 17.5ZM11.9999 15.5C11.2999 15.5 10.7082 15.2583 10.2249 14.775C9.74154 14.2917 9.49988 13.7 9.49988 13C9.49988 12.3 9.74154 11.7083 10.2249 11.225C10.7082 10.7417 11.2999 10.5 11.9999 10.5C12.6999 10.5 13.2915 10.7417 13.7749 11.225C14.2582 11.7083 14.4999 12.3 14.4999 13C14.4999 13.7 14.2582 14.2917 13.7749 14.775C13.2915 15.2583 12.6999 15.5 11.9999 15.5ZM3.99988 21C3.44988 21 2.97904 20.8042 2.58738 20.4125C2.19571 20.0208 1.99988 19.55 1.99988 19V7C1.99988 6.45 2.19571 5.97917 2.58738 5.5875C2.97904 5.19583 3.44988 5 3.99988 5H7.14988L8.99988 3H14.9999L16.8499 5H19.9999C20.5499 5 21.0207 5.19583 21.4124 5.5875C21.804 5.97917 21.9999 6.45 21.9999 7V19C21.9999 19.55 21.804 20.0208 21.4124 20.4125C21.0207 20.8042 20.5499 21 19.9999 21H3.99988ZM3.99988 19H19.9999V7H15.9499L14.1249 5H9.87488L8.04988 7H3.99988V19Z" fill="#F5F5F5"/>
</g>
</svg>
